<?xml version="1.0" encoding="iso-8859-1"?>
<!-- Generator: Adobe Illustrator 18.0.0, SVG Export Plug-In . SVG Version: 6.00 Build 0)  -->
<!DOCTYPE svg PUBLIC "-//W3C//DTD SVG 1.1//EN" "http://www.w3.org/Graphics/SVG/1.1/DTD/svg11.dtd">
<svg version="1.1" id="Capa_1" xmlns="http://www.w3.org/2000/svg" xmlns:xlink="http://www.w3.org/1999/xlink" x="0px" y="0px"
	 viewBox="0 0 416.925 416.925" style="enable-background:new 0 0 416.925 416.925;" xml:space="preserve">
<g>
	<path style="fill:#BAB388;" d="M253.955,177.511c8.867,13.032,12.092,29.754,7.418,46.089
		c-8.052,28.141-36.593,44.865-64.79,38.607c-1.086-0.238-2.171-0.517-3.258-0.828c-11.97-3.425-21.878-10.566-28.825-19.803
		c-10.013-13.318-13.889-30.997-8.952-48.254c8.294-28.987,38.345-45.861,67.359-37.955c0.234,0.056,0.464,0.122,0.695,0.188
		C236.487,159.241,246.976,167.224,253.955,177.511z M229.618,214.514c3.342-11.681-3.418-23.861-15.099-27.203
		c-11.691-3.345-23.87,3.415-27.213,15.097s3.418,23.861,15.109,27.206C214.096,232.956,226.275,226.195,229.618,214.514z"/>
	<path style="fill:#EAE8DC;" d="M197.635,0.281l0.023,0.537L11.278,275.974c-13.371-38.951-15.37-82.241-3.181-124.841
		C33.242,63.249,111.185,4.773,197.635,0.281z"/>
	<path style="fill:#EAE8DC;" d="M341.63,48.086c61.602,51.201,90.647,135.742,67.196,217.703
		c-31.662,110.66-147.03,174.704-257.69,143.043c-14.912-4.267-28.974-10.048-42.067-17.143l0.851-1.556l86.664-127.926
		c28.196,6.258,56.738-10.466,64.79-38.607c4.674-16.335,1.449-33.057-7.418-46.089L341.63,48.086z"/>
	<path style="fill:#E2E0D0;" d="M222.909,155.367c0.233,0.056,0.464,0.122,0.695,0.188c12.883,3.686,23.372,11.669,30.351,21.956
		L341.63,48.086c-9.695-8.068-20.199-15.307-31.439-21.57c-13.758-7.681-28.599-13.903-44.395-18.423
		c-22.776-6.517-45.754-8.983-68.161-7.811l0.023,0.537L11.278,275.973c12.525,36.493,35.054,69.172,65.262,93.884
		c0,0,20.892,15.536,32.53,21.831l0.851-1.556l86.664-127.926c-1.086-0.238-2.171-0.517-3.258-0.828
		c-11.97-3.425-21.878-10.566-28.824-19.803c-10.013-13.318-13.889-30.996-8.952-48.254
		C163.844,164.335,193.895,147.46,222.909,155.367z"/>
	<path style="fill:none;stroke:#000000;stroke-width:20;stroke-linejoin:round;stroke-miterlimit:10;" d="M76.537,369.868"/>
</g>
<g>
</g>
<g>
</g>
<g>
</g>
<g>
</g>
<g>
</g>
<g>
</g>
<g>
</g>
<g>
</g>
<g>
</g>
<g>
</g>
<g>
</g>
<g>
</g>
<g>
</g>
<g>
</g>
<g>
</g>
</svg>
